montavon.ufo
<glyph name="-" format="2">
  <advance width="683"/>
  <unicode hex="002D"/>
  <outline>
      <contour>
        <point x="555" y="597" type="line"/>
        <point x="602" y="597"/>
        <point x="640" y="559"/>
        <point x="640"  y="512"  type="curve"/>
        <point x="640" y="465"/>
        <point x="602" y="427"/>
        <point x="555"  y="427"  type="curve"/>
        <point x="128" y="427" type="line"/>
        <point x="81" y="427"/>
        <point x="43" y="465"/>
        <point x="43"  y="512"  type="curve"/>
        <point x="43" y="559"/>
        <point x="81" y="597"/>
        <point x="128"  y="597"  type="curve"/>
        <point x="555" y="597" type="line"/>
      </contour>
  </outline>
</glyph>
<glyph name="A" format="2">
  <advance width="667"/>
  <unicode hex="0041"/>
  <outline>
      <contour>
        <point x="333" y="667" type="line"/>
        <point x="471" y="667"/>
        <point x="583" y="555"/>
        <point x="583"  y="417"  type="curve"/>
        <point x="583" y="83" type="line"/>
        <point x="583" y="81" type="line"/>
        <point x="584" y="76"/>
        <point x="587" y="72"/>
        <point x="599"  y="65"  type="curve"/>
        <point x="605" y="61"/>
        <point x="613" y="58"/>
        <point x="623"  y="54"  type="curve"/>
        <point x="633" y="50"/>
        <point x="644" y="45"/>
        <point x="655"  y="39"  type="curve"/>
        <point x="664" y="35"/>
        <point x="668" y="25"/>
        <point x="666"  y="16"  type="curve"/>
        <point x="664" y="7"/>
        <point x="655" y="0"/>
        <point x="646"  y="0"  type="curve"/>
        <point x="438" y="0" type="line"/>
        <point x="428" y="0"/>
        <point x="419" y="7"/>
        <point x="417"  y="16"  type="curve"/>
        <point x="415" y="25"/>
        <point x="420" y="35"/>
        <point x="428"  y="39"  type="curve"/>
        <point x="439" y="45"/>
        <point x="450" y="50"/>
        <point x="460"  y="54"  type="curve"/>
        <point x="470" y="58"/>
        <point x="478" y="61"/>
        <point x="485"  y="65"  type="curve"/>
        <point x="496" y="72"/>
        <point x="499" y="76"/>
        <point x="500"  y="81"  type="curve"/>
        <point x="500" y="83" type="line"/>
        <point x="500" y="250" type="line"/>
        <point x="167" y="250" type="line"/>
        <point x="167" y="83" type="line"/>
        <point x="167" y="81" type="line"/>
        <point x="167" y="76"/>
        <point x="171" y="72"/>
        <point x="182"  y="65"  type="curve"/>
        <point x="189" y="61"/>
        <point x="197" y="58"/>
        <point x="207"  y="54"  type="curve"/>
        <point x="216" y="50"/>
        <point x="227" y="45"/>
        <point x="238"  y="39"  type="curve"/>
        <point x="247" y="35"/>
        <point x="252" y="25"/>
        <point x="249"  y="16"  type="curve"/>
        <point x="247" y="7"/>
        <point x="239" y="0"/>
        <point x="229"  y="0"  type="curve"/>
        <point x="21" y="0" type="line"/>
        <point x="11" y="0"/>
        <point x="3" y="7"/>
        <point x="1"  y="16"  type="curve"/>
        <point x="-2" y="25"/>
        <point x="3" y="35"/>
        <point x="12"  y="39"  type="curve"/>
        <point x="23" y="45"/>
        <point x="34" y="50"/>
        <point x="43"  y="54"  type="curve"/>
        <point x="53" y="58"/>
        <point x="61" y="61"/>
        <point x="68"  y="65"  type="curve"/>
        <point x="79" y="72"/>
        <point x="83" y="76"/>
        <point x="83"  y="81"  type="curve"/>
        <point x="83" y="83" type="line"/>
        <point x="83" y="417" type="line"/>
        <point x="83" y="555"/>
        <point x="195" y="667"/>
        <point x="333"  y="667"  type="curve"/>
        <point x="333" y="583" type="line"/>
        <point x="241" y="583"/>
        <point x="167" y="509"/>
        <point x="167"  y="417"  type="curve"/>
        <point x="167" y="333" type="line"/>
        <point x="500" y="333" type="line"/>
        <point x="500" y="417" type="line"/>
        <point x="500" y="509"/>
        <point x="425" y="583"/>
        <point x="333"  y="583"  type="curve"/>
      </contour>
  </outline>
</glyph>
<glyph name="B" format="2">
  <advance width="583"/>
  <unicode hex="0042"/>
  <outline>
      <contour>
        <point x="354" y="667" type="line"/>
        <point x="458" y="667"/>
        <point x="542" y="583"/>
        <point x="542"  y="479"  type="curve"/>
        <point x="542" y="429"/>
        <point x="522" y="383"/>
        <point x="490"  y="350"  type="curve"/>
        <point x="546" y="317"/>
        <point x="583" y="257"/>
        <point x="583"  y="188"  type="curve"/>
        <point x="583" y="84"/>
        <point x="499" y="0"/>
        <point x="396"  y="0"  type="curve"/>
        <point x="21" y="0" type="line"/>
        <point x="11" y="0"/>
        <point x="3" y="7"/>
        <point x="1"  y="16"  type="curve"/>
        <point x="-2" y="25"/>
        <point x="3" y="35"/>
        <point x="12"  y="39"  type="curve"/>
        <point x="23" y="45"/>
        <point x="34" y="50"/>
        <point x="43"  y="54"  type="curve"/>
        <point x="53" y="58"/>
        <point x="61" y="61"/>
        <point x="68"  y="65"  type="curve"/>
        <point x="81" y="72"/>
        <point x="83" y="77"/>
        <point x="83"  y="83"  type="curve"/>
        <point x="83" y="583" type="line"/>
        <point x="83" y="589"/>
        <point x="81" y="594"/>
        <point x="68"  y="602"  type="curve"/>
        <point x="61" y="605"/>
        <point x="53" y="609"/>
        <point x="43"  y="613"  type="curve"/>
        <point x="34" y="617"/>
        <point x="23" y="622"/>
        <point x="12"  y="627"  type="curve"/>
        <point x="3" y="632"/>
        <point x="-2" y="641"/>
        <point x="1"  y="651"  type="curve"/>
        <point x="3" y="660"/>
        <point x="11" y="667"/>
        <point x="21"  y="667"  type="curve"/>
        <point x="354" y="667" type="line"/>
        <point x="167" y="83" type="line"/>
        <point x="396" y="83" type="line"/>
        <point x="453" y="83"/>
        <point x="500" y="130"/>
        <point x="500"  y="188"  type="curve"/>
        <point x="500" y="245"/>
        <point x="453" y="292"/>
        <point x="396"  y="292"  type="curve"/>
        <point x="167" y="292" type="line"/>
        <point x="167" y="83" type="line"/>
        <point x="167" y="375" type="line"/>
        <point x="354" y="375" type="line"/>
        <point x="412" y="375"/>
        <point x="458" y="422"/>
        <point x="458"  y="479"  type="curve"/>
        <point x="458" y="537"/>
        <point x="412" y="583"/>
        <point x="354"  y="583"  type="curve"/>
        <point x="167" y="583" type="line"/>
        <point x="167" y="375" type="line"/>
      </contour>
  </outline>
</glyph>
<glyph name="a" format="2">
  <advance width="1024"/>
  <unicode hex="0061"/>
  <outline>
      <contour>
        <point x="686" y="61" type="line"/>
        <point x="614" y="8"/>
        <point x="524" y="-21"/>
        <point x="427"  y="-21"  type="curve"/>
        <point x="341" y="-21" type="line"/>
        <point x="200" y="-21"/>
        <point x="85" y="93"/>
        <point x="85"  y="235"  type="curve"/>
        <point x="85" y="256" type="line"/>
        <point x="85" y="445"/>
        <point x="238" y="597"/>
        <point x="427"  y="597"  type="curve"/>
        <point x="683" y="597" type="line"/>
        <point x="683" y="619" type="line"/>
        <point x="683" y="760"/>
        <point x="568" y="875"/>
        <point x="427"  y="875"  type="curve"/>
        <point x="356" y="875"/>
        <point x="292" y="846"/>
        <point x="246"  y="800"  type="curve"/>
        <point x="212" y="766"/>
        <point x="158" y="766"/>
        <point x="125"  y="800"  type="curve"/>
        <point x="92" y="833"/>
        <point x="92" y="887"/>
        <point x="125"  y="920"  type="curve"/>
        <point x="202" y="997"/>
        <point x="309" y="1045"/>
        <point x="427"  y="1045"  type="curve"/>
        <point x="662" y="1045"/>
        <point x="853" y="854"/>
        <point x="853"  y="619"  type="curve"/>
        <point x="853" y="171" type="line"/>
        <point x="853" y="160"/>
        <point x="856" y="153"/>
        <point x="858"  y="148"  type="curve"/>
        <point x="862" y="143"/>
        <point x="867" y="137"/>
        <point x="876"  y="130"  type="curve"/>
        <point x="886" y="123"/>
        <point x="897" y="116"/>
        <point x="913"  y="108"  type="curve"/>
        <point x="927" y="100"/>
        <point x="945" y="90"/>
        <point x="962"  y="78"  type="curve"/>
        <point x="978" y="68"/>
        <point x="985" y="48"/>
        <point x="979"  y="30"  type="curve"/>
        <point x="974" y="12"/>
        <point x="957" y="0"/>
        <point x="939"  y="0"  type="curve"/>
        <point x="768" y="0" type="line"/>
        <point x="729" y="0"/>
        <point x="697" y="26"/>
        <point x="686"  y="61"  type="curve"/>
      </contour>
      <contour>
        <point x="427" y="427" type="line"/>
        <point x="332" y="427"/>
        <point x="256" y="350"/>
        <point x="256"  y="256"  type="curve"/>
        <point x="256" y="235" type="line"/>
        <point x="256" y="188"/>
        <point x="294" y="149"/>
        <point x="341"  y="149"  type="curve"/>
        <point x="427" y="149" type="line"/>
        <point x="572" y="149"/>
        <point x="683" y="246"/>
        <point x="683"  y="405"  type="curve"/>
        <point x="683" y="427" type="line"/>
        <point x="427" y="427" type="line"/>
      </contour>
  </outline>
</glyph>
<glyph name="b" format="2">
  <advance width="1109"/>
  <unicode hex="0062"/>
  <outline>
      <contour>
        <point x="256" y="1557" type="line"/>
        <point x="303" y="1557"/>
        <point x="341" y="1519"/>
        <point x="341"  y="1472"  type="curve"/>
        <point x="341" y="960" type="line"/>
        <point x="413" y="1014"/>
        <point x="501" y="1045"/>
        <point x="597"  y="1045"  type="curve"/>
        <point x="833" y="1045"/>
        <point x="1024" y="854"/>
        <point x="1024"  y="619"  type="curve"/>
        <point x="1024" y="405" type="line"/>
        <point x="1024" y="148"/>
        <point x="833" y="-21"/>
        <point x="597"  y="-21"  type="curve"/>
        <point x="500" y="-21"/>
        <point x="410" y="8"/>
        <point x="338"  y="61"  type="curve"/>
        <point x="327" y="25"/>
        <point x="294" y="0"/>
        <point x="256"  y="0"  type="curve"/>
        <point x="85" y="0" type="line"/>
        <point x="67" y="0"/>
        <point x="50" y="12"/>
        <point x="45"  y="30"  type="curve"/>
        <point x="39" y="48"/>
        <point x="46" y="68"/>
        <point x="62"  y="78"  type="curve"/>
        <point x="79" y="90"/>
        <point x="97" y="100"/>
        <point x="111"  y="108"  type="curve"/>
        <point x="127" y="116"/>
        <point x="138" y="123"/>
        <point x="148"  y="130"  type="curve"/>
        <point x="157" y="137"/>
        <point x="162" y="143"/>
        <point x="166"  y="148"  type="curve"/>
        <point x="168" y="153"/>
        <point x="171" y="160"/>
        <point x="171"  y="171"  type="curve"/>
        <point x="171" y="1472" type="line"/>
        <point x="171" y="1519"/>
        <point x="209" y="1557"/>
        <point x="256"  y="1557"  type="curve"/>
      </contour>
      <contour>
        <point x="597" y="875" type="line"/>
        <point x="456" y="875"/>
        <point x="341" y="760"/>
        <point x="341"  y="619"  type="curve"/>
        <point x="341" y="405" type="line"/>
        <point x="341" y="243"/>
        <point x="456" y="149"/>
        <point x="597"  y="149"  type="curve"/>
        <point x="739" y="149"/>
        <point x="853" y="243"/>
        <point x="853"  y="405"  type="curve"/>
        <point x="853" y="619" type="line"/>
        <point x="853" y="760"/>
        <point x="739" y="875"/>
        <point x="597"  y="875"  type="curve"/>
      </contour>
  </outline>
</glyph>
<glyph name="c" format="2">
  <advance width="853"/>
  <unicode hex="0063"/>
  <outline>
      <contour>
        <point x="85" y="405" type="line"/>
        <point x="85" y="597" type="line"/>
        <point x="85" y="833"/>
        <point x="276" y="1024"/>
        <point x="512"  y="1024"  type="curve"/>
        <point x="630" y="1024"/>
        <point x="737" y="976"/>
        <point x="814"  y="899"  type="curve"/>
        <point x="847" y="866"/>
        <point x="847" y="812"/>
        <point x="814"  y="778"  type="curve"/>
        <point x="780" y="745"/>
        <point x="726" y="745"/>
        <point x="693"  y="778"  type="curve"/>
        <point x="647" y="825"/>
        <point x="583" y="853"/>
        <point x="512"  y="853"  type="curve"/>
        <point x="371" y="853"/>
        <point x="256" y="739"/>
        <point x="256"  y="597"  type="curve"/>
        <point x="256" y="405" type="line"/>
        <point x="256" y="243"/>
        <point x="371" y="149"/>
        <point x="512"  y="149"  type="curve"/>
        <point x="583" y="149"/>
        <point x="647" y="178"/>
        <point x="693"  y="224"  type="curve"/>
        <point x="726" y="258"/>
        <point x="780" y="258"/>
        <point x="814"  y="224"  type="curve"/>
        <point x="847" y="191"/>
        <point x="847" y="137"/>
        <point x="814"  y="104"  type="curve"/>
        <point x="737" y="27"/>
        <point x="630" y="-21"/>
        <point x="512"  y="-21"  type="curve"/>
        <point x="276" y="-21"/>
        <point x="85" y="148"/>
        <point x="85"  y="405"  type="curve"/>
      </contour>
  </outline>
</glyph>
<glyph name="d" format="2">
  <advance width="1109"/>
  <unicode hex="0064"/>
  <outline>
      <contour>
        <point x="853" y="1557" type="line"/>
        <point x="900" y="1557"/>
        <point x="939" y="1519"/>
        <point x="939"  y="1472"  type="curve"/>
        <point x="939" y="171" type="line"/>
        <point x="939" y="160"/>
        <point x="941" y="153"/>
        <point x="944"  y="148"  type="curve"/>
        <point x="947" y="143"/>
        <point x="952" y="137"/>
        <point x="961"  y="130"  type="curve"/>
        <point x="971" y="123"/>
        <point x="983" y="116"/>
        <point x="998"  y="108"  type="curve"/>
        <point x="1013" y="100"/>
        <point x="1030" y="90"/>
        <point x="1048"  y="78"  type="curve"/>
        <point x="1063" y="68"/>
        <point x="1070" y="48"/>
        <point x="1065"  y="30"  type="curve"/>
        <point x="1059" y="12"/>
        <point x="1043" y="0"/>
        <point x="1024"  y="0"  type="curve"/>
        <point x="853" y="0" type="line"/>
        <point x="815" y="0"/>
        <point x="782" y="26"/>
        <point x="772"  y="61"  type="curve"/>
        <point x="700" y="8"/>
        <point x="610" y="-21"/>
        <point x="512"  y="-21"  type="curve"/>
        <point x="276" y="-21"/>
        <point x="85" y="148"/>
        <point x="85"  y="405"  type="curve"/>
        <point x="85" y="619" type="line"/>
        <point x="85" y="854"/>
        <point x="276" y="1045"/>
        <point x="512"  y="1045"  type="curve"/>
        <point x="608" y="1045"/>
        <point x="697" y="1014"/>
        <point x="768"  y="960"  type="curve"/>
        <point x="768" y="1472" type="line"/>
        <point x="768" y="1519"/>
        <point x="806" y="1557"/>
        <point x="853"  y="1557"  type="curve"/>
      </contour>
      <contour>
        <point x="512" y="875" type="line"/>
        <point x="371" y="875"/>
        <point x="256" y="760"/>
        <point x="256"  y="619"  type="curve"/>
        <point x="256" y="405" type="line"/>
        <point x="256" y="243"/>
        <point x="371" y="149"/>
        <point x="512"  y="149"  type="curve"/>
        <point x="653" y="149"/>
        <point x="768" y="243"/>
        <point x="768"  y="405"  type="curve"/>
        <point x="768" y="619" type="line"/>
        <point x="768" y="760"/>
        <point x="653" y="875"/>
        <point x="512"  y="875"  type="curve"/>
      </contour>
  </outline>
</glyph>
<glyph name="e" format="2">
  <advance width="939"/>
  <unicode hex="0065"/>
  <outline>
      <contour>
        <point x="512" y="1045" type="line"/>
        <point x="701" y="1045"/>
        <point x="853" y="893"/>
        <point x="853"  y="704"  type="curve"/>
        <point x="853" y="683" type="line"/>
        <point x="853" y="541"/>
        <point x="739" y="427"/>
        <point x="597"  y="427"  type="curve"/>
        <point x="256" y="427" type="line"/>
        <point x="256" y="405" type="line"/>
        <point x="256" y="264"/>
        <point x="371" y="149"/>
        <point x="512"  y="149"  type="curve"/>
        <point x="583" y="149"/>
        <point x="647" y="178"/>
        <point x="693"  y="224"  type="curve"/>
        <point x="726" y="258"/>
        <point x="780" y="258"/>
        <point x="814"  y="224"  type="curve"/>
        <point x="847" y="191"/>
        <point x="847" y="137"/>
        <point x="814"  y="104"  type="curve"/>
        <point x="737" y="27"/>
        <point x="630" y="-21"/>
        <point x="512"  y="-21"  type="curve"/>
        <point x="276" y="-21"/>
        <point x="85" y="170"/>
        <point x="85"  y="405"  type="curve"/>
        <point x="85" y="619" type="line"/>
        <point x="85" y="854"/>
        <point x="276" y="1045"/>
        <point x="512"  y="1045"  type="curve"/>
      </contour>
      <contour>
        <point x="512" y="875" type="line"/>
        <point x="371" y="875"/>
        <point x="256" y="760"/>
        <point x="256"  y="619"  type="curve"/>
        <point x="256" y="597" type="line"/>
        <point x="597" y="597" type="line"/>
        <point x="644" y="597"/>
        <point x="683" y="636"/>
        <point x="683"  y="683"  type="curve"/>
        <point x="683" y="704" type="line"/>
        <point x="683" y="798"/>
        <point x="606" y="875"/>
        <point x="512"  y="875"  type="curve"/>
      </contour>
  </outline>
</glyph>
<glyph name="f" format="2">
  <advance width="640"/>
  <unicode hex="0066"/>
  <outline>
      <contour>
        <point x="796" y="1457" type="line"/>
        <point x="734" y="1519"/>
        <point x="649" y="1557"/>
        <point x="555"  y="1557"  type="curve"/>
        <point x="366" y="1557"/>
        <point x="213" y="1405"/>
        <point x="213"  y="1216"  type="curve"/>
        <point x="213" y="171" type="line"/>
        <point x="213" y="158"/>
        <point x="209" y="148"/>
        <point x="182"  y="133"  type="curve"/>
        <point x="168" y="126"/>
        <point x="152" y="119"/>
        <point x="131"  y="110"  type="curve"/>
        <point x="112" y="102"/>
        <point x="89" y="92"/>
        <point x="66"  y="81"  type="curve"/>
        <point x="49" y="72"/>
        <point x="39" y="52"/>
        <point x="44"  y="33"  type="curve"/>
        <point x="48" y="14"/>
        <point x="66" y="0"/>
        <point x="85"  y="0"  type="curve"/>
        <point x="512" y="0" type="line"/>
        <point x="532" y="0"/>
        <point x="549" y="14"/>
        <point x="553"  y="33"  type="curve"/>
        <point x="558" y="52"/>
        <point x="549" y="72"/>
        <point x="531"  y="81"  type="curve"/>
        <point x="508" y="92"/>
        <point x="486" y="102"/>
        <point x="466"  y="110"  type="curve"/>
        <point x="446" y="119"/>
        <point x="429" y="126"/>
        <point x="415"  y="133"  type="curve"/>
        <point x="389" y="148"/>
        <point x="384" y="158"/>
        <point x="384"  y="171"  type="curve"/>
        <point x="384" y="853" type="line"/>
        <point x="555" y="853" type="line"/>
        <point x="602" y="853"/>
        <point x="640" y="892"/>
        <point x="640"  y="939"  type="curve"/>
        <point x="640" y="986"/>
        <point x="602" y="1024"/>
        <point x="555"  y="1024"  type="curve"/>
        <point x="384" y="1024" type="line"/>
        <point x="384" y="1216" type="line"/>
        <point x="384" y="1310"/>
        <point x="460" y="1387"/>
        <point x="555"  y="1387"  type="curve"/>
        <point x="602" y="1387"/>
        <point x="644" y="1368"/>
        <point x="675"  y="1337"  type="curve"/>
        <point x="709" y="1303"/>
        <point x="763" y="1303"/>
        <point x="796"  y="1337"  type="curve"/>
        <point x="829" y="1370"/>
        <point x="829" y="1424"/>
        <point x="796"  y="1457"  type="curve"/>
      </contour>
  </outline>
</glyph>
<glyph name="g" format="2">
  <advance width="1067"/>
  <unicode hex="0067"/>
  <outline>
      <contour>
        <point x="512" y="1045" type="line"/>
        <point x="609" y="1045"/>
        <point x="699" y="1013"/>
        <point x="770"  y="958"  type="curve"/>
        <point x="779" y="996"/>
        <point x="813" y="1024"/>
        <point x="853"  y="1024"  type="curve"/>
        <point x="981" y="1024" type="line"/>
        <point x="999" y="1024"/>
        <point x="1014" y="1014"/>
        <point x="1021"  y="998"  type="curve"/>
        <point x="1027" y="982"/>
        <point x="1024" y="963"/>
        <point x="1011"  y="951"  type="curve"/>
        <point x="999" y="939"/>
        <point x="987" y="929"/>
        <point x="978"  y="921"  type="curve"/>
        <point x="967" y="912"/>
        <point x="960" y="906"/>
        <point x="954"  y="899"  type="curve"/>
        <point x="945" y="889"/>
        <point x="939" y="878"/>
        <point x="939"  y="853"  type="curve"/>
        <point x="939" y="64" type="line"/>
        <point x="939" y="-172"/>
        <point x="748" y="-363"/>
        <point x="512"  y="-363"  type="curve"/>
        <point x="394" y="-363"/>
        <point x="287" y="-315"/>
        <point x="210"  y="-238"  type="curve"/>
        <point x="177" y="-204"/>
        <point x="177" y="-150"/>
        <point x="210"  y="-117"  type="curve"/>
        <point x="244" y="-84"/>
        <point x="298" y="-84"/>
        <point x="331"  y="-117"  type="curve"/>
        <point x="377" y="-163"/>
        <point x="441" y="-192"/>
        <point x="512"  y="-192"  type="curve"/>
        <point x="651" y="-192"/>
        <point x="765" y="-81"/>
        <point x="768"  y="58"  type="curve"/>
        <point x="696" y="7"/>
        <point x="607" y="-21"/>
        <point x="512"  y="-21"  type="curve"/>
        <point x="280" y="-21"/>
        <point x="85" y="145"/>
        <point x="85"  y="405"  type="curve"/>
        <point x="85" y="619" type="line"/>
        <point x="85" y="854"/>
        <point x="276" y="1045"/>
        <point x="512"  y="1045"  type="curve"/>
      </contour>
      <contour>
        <point x="512" y="875" type="line"/>
        <point x="371" y="875"/>
        <point x="256" y="760"/>
        <point x="256"  y="619"  type="curve"/>
        <point x="256" y="405" type="line"/>
        <point x="256" y="246"/>
        <point x="367" y="149"/>
        <point x="512"  y="149"  type="curve"/>
        <point x="657" y="149"/>
        <point x="768" y="246"/>
        <point x="768"  y="405"  type="curve"/>
        <point x="768" y="619" type="line"/>
        <point x="768" y="760"/>
        <point x="653" y="875"/>
        <point x="512"  y="875"  type="curve"/>
      </contour>
  </outline>
</glyph>
<glyph name="h" format="2">
  <advance width="1280"/>
  <unicode hex="0068"/>
  <outline>
      <contour>
        <point x="299" y="1387" type="line"/>
        <point x="346" y="1387"/>
        <point x="384" y="1348"/>
        <point x="384"  y="1301"  type="curve"/>
        <point x="384" y="939" type="line"/>
        <point x="455" y="992"/>
        <point x="544" y="1024"/>
        <point x="640"  y="1024"  type="curve"/>
        <point x="876" y="1024"/>
        <point x="1067" y="833"/>
        <point x="1067"  y="597"  type="curve"/>
        <point x="1067" y="171" type="line"/>
        <point x="1067" y="158"/>
        <point x="1071" y="148"/>
        <point x="1098"  y="133"  type="curve"/>
        <point x="1112" y="126"/>
        <point x="1128" y="119"/>
        <point x="1149"  y="110"  type="curve"/>
        <point x="1168" y="102"/>
        <point x="1191" y="92"/>
        <point x="1214"  y="81"  type="curve"/>
        <point x="1231" y="72"/>
        <point x="1241" y="52"/>
        <point x="1236"  y="33"  type="curve"/>
        <point x="1232" y="14"/>
        <point x="1214" y="0"/>
        <point x="1195"  y="0"  type="curve"/>
        <point x="768" y="0" type="line"/>
        <point x="748" y="0"/>
        <point x="731" y="14"/>
        <point x="727"  y="33"  type="curve"/>
        <point x="722" y="52"/>
        <point x="731" y="72"/>
        <point x="749"  y="81"  type="curve"/>
        <point x="772" y="92"/>
        <point x="794" y="102"/>
        <point x="814"  y="110"  type="curve"/>
        <point x="834" y="119"/>
        <point x="851" y="126"/>
        <point x="865"  y="133"  type="curve"/>
        <point x="891" y="148"/>
        <point x="896" y="158"/>
        <point x="896"  y="171"  type="curve"/>
        <point x="896" y="597" type="line"/>
        <point x="896" y="739"/>
        <point x="781" y="853"/>
        <point x="640"  y="853"  type="curve"/>
        <point x="499" y="853"/>
        <point x="384" y="739"/>
        <point x="384"  y="597"  type="curve"/>
        <point x="384" y="171" type="line"/>
        <point x="384" y="158"/>
        <point x="389" y="148"/>
        <point x="415"  y="133"  type="curve"/>
        <point x="429" y="126"/>
        <point x="446" y="119"/>
        <point x="466"  y="110"  type="curve"/>
        <point x="486" y="102"/>
        <point x="508" y="92"/>
        <point x="531"  y="81"  type="curve"/>
        <point x="549" y="72"/>
        <point x="558" y="52"/>
        <point x="554"  y="33"  type="curve"/>
        <point x="549" y="14"/>
        <point x="532" y="0"/>
        <point x="512"  y="0"  type="curve"/>
        <point x="85" y="0" type="line"/>
        <point x="66" y="0"/>
        <point x="48" y="14"/>
        <point x="44"  y="33"  type="curve"/>
        <point x="39" y="52"/>
        <point x="49" y="72"/>
        <point x="66"  y="81"  type="curve"/>
        <point x="89" y="92"/>
        <point x="112" y="102"/>
        <point x="131"  y="110"  type="curve"/>
        <point x="152" y="119"/>
        <point x="168" y="126"/>
        <point x="182"  y="133"  type="curve"/>
        <point x="209" y="148"/>
        <point x="213" y="158"/>
        <point x="213"  y="171"  type="curve"/>
        <point x="213" y="1301" type="line"/>
        <point x="213" y="1348"/>
        <point x="252" y="1387"/>
        <point x="299"  y="1387"  type="curve"/>
      </contour>
  </outline>
</glyph>
<glyph name="j" format="2">
  <advance width="427"/>
  <unicode hex="006A"/>
  <outline>
      <contour>
        <point x="299" y="-107" type="line"/>
        <point x="299" y="-248"/>
        <point x="184" y="-363"/>
        <point x="43"  y="-363"  type="curve"/>
        <point x="-28" y="-363"/>
        <point x="-92" y="-334"/>
        <point x="-138"  y="-288"  type="curve"/>
        <point x="-172" y="-254"/>
        <point x="-172" y="-200"/>
        <point x="-138"  y="-167"  type="curve"/>
        <point x="-105" y="-134"/>
        <point x="-51" y="-134"/>
        <point x="-18"  y="-167"  type="curve"/>
        <point x="-2" y="-183"/>
        <point x="19" y="-192"/>
        <point x="43"  y="-192"  type="curve"/>
        <point x="90" y="-192"/>
        <point x="128" y="-154"/>
        <point x="128"  y="-107"  type="curve"/>
        <point x="128" y="853" type="line"/>
        <point x="128" y="878"/>
        <point x="121" y="889"/>
        <point x="112"  y="899"  type="curve"/>
        <point x="106" y="906"/>
        <point x="99" y="912"/>
        <point x="89"  y="921"  type="curve"/>
        <point x="79" y="929"/>
        <point x="67" y="939"/>
        <point x="55"  y="951"  type="curve"/>
        <point x="43" y="963"/>
        <point x="39" y="982"/>
        <point x="46"  y="998"  type="curve"/>
        <point x="53" y="1014"/>
        <point x="68" y="1024"/>
        <point x="85"  y="1024"  type="curve"/>
        <point x="341" y="1024" type="line"/>
        <point x="359" y="1024"/>
        <point x="374" y="1014"/>
        <point x="381"  y="998"  type="curve"/>
        <point x="387" y="982"/>
        <point x="384" y="963"/>
        <point x="372"  y="951"  type="curve"/>
        <point x="359" y="939"/>
        <point x="347" y="929"/>
        <point x="338"  y="921"  type="curve"/>
        <point x="327" y="912"/>
        <point x="320" y="906"/>
        <point x="314"  y="899"  type="curve"/>
        <point x="305" y="889"/>
        <point x="299" y="878"/>
        <point x="299"  y="853"  type="curve"/>
        <point x="299" y="-107" type="line"/>
      </contour>
      <contour>
        <point x="213" y="1387" type="line"/>
        <point x="272" y="1387"/>
        <point x="320" y="1339"/>
        <point x="320"  y="1280"  type="curve"/>
        <point x="320" y="1221"/>
        <point x="272" y="1173"/>
        <point x="213"  y="1173"  type="curve"/>
        <point x="154" y="1173"/>
        <point x="107" y="1221"/>
        <point x="107"  y="1280"  type="curve"/>
        <point x="107" y="1339"/>
        <point x="154" y="1387"/>
        <point x="213"  y="1387"  type="curve"/>
      </contour>
  </outline>
</glyph>
<glyph name="k" format="2">
  <advance width="1280"/>
  <unicode hex="006B"/>
  <outline>
      <contour>
        <point x="384" y="1472" type="line"/>
        <point x="384" y="1519"/>
        <point x="346" y="1557"/>
        <point x="299"  y="1557"  type="curve"/>
        <point x="252" y="1557"/>
        <point x="213" y="1519"/>
        <point x="213"  y="1472"  type="curve"/>
        <point x="213" y="171" type="line"/>
        <point x="213" y="158"/>
        <point x="209" y="148"/>
        <point x="182"  y="133"  type="curve"/>
        <point x="168" y="126"/>
        <point x="152" y="119"/>
        <point x="131"  y="110"  type="curve"/>
        <point x="112" y="102"/>
        <point x="89" y="92"/>
        <point x="66"  y="81"  type="curve"/>
        <point x="49" y="72"/>
        <point x="39" y="52"/>
        <point x="44"  y="33"  type="curve"/>
        <point x="48" y="14"/>
        <point x="66" y="0"/>
        <point x="85"  y="0"  type="curve"/>
        <point x="512" y="0" type="line"/>
        <point x="532" y="0"/>
        <point x="549" y="14"/>
        <point x="553"  y="33"  type="curve"/>
        <point x="558" y="52"/>
        <point x="549" y="72"/>
        <point x="531"  y="81"  type="curve"/>
        <point x="508" y="92"/>
        <point x="486" y="102"/>
        <point x="466"  y="110"  type="curve"/>
        <point x="446" y="119"/>
        <point x="429" y="126"/>
        <point x="415"  y="133"  type="curve"/>
        <point x="389" y="148"/>
        <point x="384" y="158"/>
        <point x="384"  y="171"  type="curve"/>
        <point x="384" y="428" type="line"/>
        <point x="385" y="454"/>
        <point x="397" y="479"/>
        <point x="419"  y="495"  type="curve"/>
        <point x="455" y="522"/>
        <point x="505" y="516"/>
        <point x="534"  y="482"  type="curve"/>
        <point x="821" y="143" type="line"/>
        <point x="828" y="135"/>
        <point x="832" y="129"/>
        <point x="833"  y="125"  type="curve"/>
        <point x="829" y="121"/>
        <point x="821" y="116"/>
        <point x="806"  y="109"  type="curve"/>
        <point x="799" y="105"/>
        <point x="790" y="101"/>
        <point x="780"  y="96"  type="curve"/>
        <point x="771" y="91"/>
        <point x="760" y="86"/>
        <point x="749"  y="81"  type="curve"/>
        <point x="731" y="72"/>
        <point x="722" y="52"/>
        <point x="726"  y="33"  type="curve"/>
        <point x="731" y="14"/>
        <point x="748" y="0"/>
        <point x="768"  y="0"  type="curve"/>
        <point x="1195" y="0" type="line"/>
        <point x="1214" y="0"/>
        <point x="1232" y="14"/>
        <point x="1236"  y="33"  type="curve"/>
        <point x="1241" y="52"/>
        <point x="1231" y="72"/>
        <point x="1214"  y="81"  type="curve"/>
        <point x="1191" y="92"/>
        <point x="1168" y="102"/>
        <point x="1147"  y="110"  type="curve"/>
        <point x="1126" y="119"/>
        <point x="1107" y="127"/>
        <point x="1088"  y="135"  type="curve"/>
        <point x="1051" y="152"/>
        <point x="1022" y="170"/>
        <point x="998"  y="198"  type="curve"/>
        <point x="665" y="592" type="line"/>
        <point x="654" y="604"/>
        <point x="643" y="615"/>
        <point x="631"  y="625"  type="curve"/>
        <point x="945" y="817" type="line"/>
        <point x="945" y="817" type="line"/>
        <point x="1061" y="886"/>
        <point x="1092" y="904"/>
        <point x="1139"  y="951"  type="curve"/>
        <point x="1152" y="963"/>
        <point x="1155" y="982"/>
        <point x="1149"  y="998"  type="curve"/>
        <point x="1142" y="1014"/>
        <point x="1127" y="1024"/>
        <point x="1109"  y="1024"  type="curve"/>
        <point x="853" y="1024" type="line"/>
        <point x="836" y="1024"/>
        <point x="821" y="1014"/>
        <point x="814"  y="998"  type="curve"/>
        <point x="807" y="982"/>
        <point x="811" y="963"/>
        <point x="823"  y="951"  type="curve"/>
        <point x="824" y="950"/>
        <point x="825" y="949"/>
        <point x="826"  y="948"  type="curve"/>
        <point x="821" y="944"/>
        <point x="815" y="939"/>
        <point x="805"  y="932"  type="curve"/>
        <point x="792" y="924"/>
        <point x="776" y="914"/>
        <point x="756"  y="901"  type="curve"/>
        <point x="384" y="675" type="line"/>
        <point x="384" y="1472" type="line"/>
      </contour>
  </outline>
</glyph>
<glyph name="l" format="2">
  <advance width="632"/>
  <unicode hex="006C"/>
  <outline>
      <contour>
        <point x="128" y="235" type="line"/>
        <point x="128" y="1472" type="line"/>
        <point x="128" y="1519"/>
        <point x="166" y="1557"/>
        <point x="213"  y="1557"  type="curve"/>
        <point x="260" y="1557"/>
        <point x="299" y="1519"/>
        <point x="299"  y="1472"  type="curve"/>
        <point x="299" y="235" type="line"/>
        <point x="299" y="188"/>
        <point x="337" y="149"/>
        <point x="384"  y="149"  type="curve"/>
        <point x="408" y="149"/>
        <point x="429" y="159"/>
        <point x="444"  y="174"  type="curve"/>
        <point x="478" y="208"/>
        <point x="532" y="208"/>
        <point x="565"  y="174"  type="curve"/>
        <point x="598" y="141"/>
        <point x="598" y="87"/>
        <point x="565"  y="54"  type="curve"/>
        <point x="519" y="7"/>
        <point x="455" y="-21"/>
        <point x="384"  y="-21"  type="curve"/>
        <point x="243" y="-21"/>
        <point x="128" y="93"/>
        <point x="128"  y="235"  type="curve"/>
      </contour>
  </outline>
</glyph>
<glyph name="n" format="2">
  <advance width="1280"/>
  <unicode hex="006E"/>
  <outline>
      <contour>
        <point x="640" y="1045" type="line"/>
        <point x="876" y="1045"/>
        <point x="1067" y="854"/>
        <point x="1067"  y="619"  type="curve"/>
        <point x="1067" y="171" type="line"/>
        <point x="1067" y="158"/>
        <point x="1071" y="148"/>
        <point x="1098"  y="133"  type="curve"/>
        <point x="1112" y="126"/>
        <point x="1128" y="119"/>
        <point x="1149"  y="110"  type="curve"/>
        <point x="1168" y="102"/>
        <point x="1191" y="92"/>
        <point x="1214"  y="81"  type="curve"/>
        <point x="1231" y="72"/>
        <point x="1241" y="52"/>
        <point x="1236"  y="33"  type="curve"/>
        <point x="1232" y="14"/>
        <point x="1214" y="0"/>
        <point x="1195"  y="0"  type="curve"/>
        <point x="768" y="0" type="line"/>
        <point x="748" y="0"/>
        <point x="731" y="14"/>
        <point x="727"  y="33"  type="curve"/>
        <point x="722" y="52"/>
        <point x="731" y="72"/>
        <point x="749"  y="81"  type="curve"/>
        <point x="772" y="92"/>
        <point x="794" y="102"/>
        <point x="814"  y="110"  type="curve"/>
        <point x="834" y="119"/>
        <point x="851" y="126"/>
        <point x="865"  y="133"  type="curve"/>
        <point x="891" y="148"/>
        <point x="896" y="158"/>
        <point x="896"  y="171"  type="curve"/>
        <point x="896" y="619" type="line"/>
        <point x="896" y="760"/>
        <point x="781" y="875"/>
        <point x="640"  y="875"  type="curve"/>
        <point x="499" y="875"/>
        <point x="384" y="760"/>
        <point x="384"  y="619"  type="curve"/>
        <point x="384" y="171" type="line"/>
        <point x="384" y="158"/>
        <point x="389" y="148"/>
        <point x="415"  y="133"  type="curve"/>
        <point x="429" y="126"/>
        <point x="446" y="119"/>
        <point x="466"  y="110"  type="curve"/>
        <point x="486" y="102"/>
        <point x="508" y="92"/>
        <point x="531"  y="81"  type="curve"/>
        <point x="549" y="72"/>
        <point x="558" y="52"/>
        <point x="554"  y="33"  type="curve"/>
        <point x="549" y="14"/>
        <point x="532" y="0"/>
        <point x="512"  y="0"  type="curve"/>
        <point x="85" y="0" type="line"/>
        <point x="66" y="0"/>
        <point x="48" y="14"/>
        <point x="44"  y="33"  type="curve"/>
        <point x="39" y="52"/>
        <point x="49" y="72"/>
        <point x="66"  y="81"  type="curve"/>
        <point x="89" y="92"/>
        <point x="112" y="102"/>
        <point x="131"  y="110"  type="curve"/>
        <point x="152" y="119"/>
        <point x="168" y="126"/>
        <point x="182"  y="133"  type="curve"/>
        <point x="209" y="148"/>
        <point x="213" y="158"/>
        <point x="213"  y="171"  type="curve"/>
        <point x="213" y="619" type="line"/>
        <point x="213" y="854"/>
        <point x="404" y="1045"/>
        <point x="640"  y="1045"  type="curve"/>
      </contour>
  </outline>
</glyph>
<glyph name="o" format="2">
  <advance width="1024"/>
  <unicode hex="006F"/>
  <outline>
      <contour>
        <point x="768" y="619" type="line"/>
        <point x="768" y="760"/>
        <point x="653" y="875"/>
        <point x="512"  y="875"  type="curve"/>
        <point x="371" y="875"/>
        <point x="256" y="760"/>
        <point x="256"  y="619"  type="curve"/>
        <point x="256" y="405" type="line"/>
        <point x="256" y="243"/>
        <point x="371" y="149"/>
        <point x="512"  y="149"  type="curve"/>
        <point x="653" y="149"/>
        <point x="768" y="243"/>
        <point x="768"  y="405"  type="curve"/>
        <point x="768" y="619" type="line"/>
      </contour>
      <contour>
        <point x="939" y="405" type="line"/>
        <point x="939" y="148"/>
        <point x="748" y="-21"/>
        <point x="512"  y="-21"  type="curve"/>
        <point x="276" y="-21"/>
        <point x="85" y="148"/>
        <point x="85"  y="405"  type="curve"/>
        <point x="85" y="619" type="line"/>
        <point x="85" y="854"/>
        <point x="276" y="1045"/>
        <point x="512"  y="1045"  type="curve"/>
        <point x="748" y="1045"/>
        <point x="939" y="854"/>
        <point x="939"  y="619"  type="curve"/>
        <point x="939" y="405" type="line"/>
      </contour>
  </outline>
</glyph>
<glyph name="p" format="2">
  <advance width="1067"/>
  <unicode hex="0070"/>
  <outline>
      <contour>
        <point x="555" y="1045" type="line"/>
        <point x="790" y="1045"/>
        <point x="981" y="854"/>
        <point x="981"  y="619"  type="curve"/>
        <point x="981" y="405" type="line"/>
        <point x="981" y="145"/>
        <point x="787" y="-21"/>
        <point x="555"  y="-21"  type="curve"/>
        <point x="459" y="-21"/>
        <point x="370" y="7"/>
        <point x="299"  y="58"  type="curve"/>
        <point x="299" y="-171" type="line"/>
        <point x="299" y="-195"/>
        <point x="305" y="-206"/>
        <point x="314"  y="-217"  type="curve"/>
        <point x="320" y="-223"/>
        <point x="327" y="-229"/>
        <point x="338"  y="-238"  type="curve"/>
        <point x="347" y="-246"/>
        <point x="359" y="-256"/>
        <point x="371"  y="-269"  type="curve"/>
        <point x="384" y="-281"/>
        <point x="387" y="-299"/>
        <point x="381"  y="-315"  type="curve"/>
        <point x="374" y="-331"/>
        <point x="359" y="-341"/>
        <point x="341"  y="-341"  type="curve"/>
        <point x="85" y="-341" type="line"/>
        <point x="68" y="-341"/>
        <point x="53" y="-331"/>
        <point x="46"  y="-315"  type="curve"/>
        <point x="39" y="-299"/>
        <point x="43" y="-281"/>
        <point x="55"  y="-269"  type="curve"/>
        <point x="67" y="-256"/>
        <point x="79" y="-246"/>
        <point x="89"  y="-238"  type="curve"/>
        <point x="99" y="-229"/>
        <point x="106" y="-223"/>
        <point x="112"  y="-217"  type="curve"/>
        <point x="121" y="-206"/>
        <point x="128" y="-195"/>
        <point x="128"  y="-171"  type="curve"/>
        <point x="128" y="853" type="line"/>
        <point x="128" y="878"/>
        <point x="121" y="889"/>
        <point x="112"  y="899"  type="curve"/>
        <point x="106" y="906"/>
        <point x="99" y="912"/>
        <point x="89"  y="921"  type="curve"/>
        <point x="79" y="929"/>
        <point x="67" y="939"/>
        <point x="55"  y="951"  type="curve"/>
        <point x="43" y="963"/>
        <point x="39" y="982"/>
        <point x="46"  y="998"  type="curve"/>
        <point x="53" y="1014"/>
        <point x="68" y="1024"/>
        <point x="85"  y="1024"  type="curve"/>
        <point x="213" y="1024" type="line"/>
        <point x="254" y="1024"/>
        <point x="287" y="996"/>
        <point x="296"  y="958"  type="curve"/>
        <point x="368" y="1013"/>
        <point x="458" y="1045"/>
        <point x="555"  y="1045"  type="curve"/>
      </contour>
      <contour>
        <point x="555" y="875" type="line"/>
        <point x="413" y="875"/>
        <point x="299" y="760"/>
        <point x="299"  y="619"  type="curve"/>
        <point x="299" y="405" type="line"/>
        <point x="299" y="246"/>
        <point x="410" y="149"/>
        <point x="555"  y="149"  type="curve"/>
        <point x="700" y="149"/>
        <point x="811" y="246"/>
        <point x="811"  y="405"  type="curve"/>
        <point x="811" y="619" type="line"/>
        <point x="811" y="760"/>
        <point x="696" y="875"/>
        <point x="555"  y="875"  type="curve"/>
      </contour>
  </outline>
</glyph>
<glyph name="r" format="2">
  <advance width="1024"/>
  <unicode hex="0072"/>
  <outline>
      <contour>
        <point x="640" y="1024" type="line"/>
        <point x="758" y="1024"/>
        <point x="865" y="976"/>
        <point x="942"  y="899"  type="curve"/>
        <point x="975" y="866"/>
        <point x="975" y="812"/>
        <point x="942"  y="778"  type="curve"/>
        <point x="908" y="745"/>
        <point x="854" y="745"/>
        <point x="821"  y="778"  type="curve"/>
        <point x="775" y="825"/>
        <point x="711" y="853"/>
        <point x="640"  y="853"  type="curve"/>
        <point x="499" y="853"/>
        <point x="384" y="739"/>
        <point x="384"  y="597"  type="curve"/>
        <point x="384" y="171" type="line"/>
        <point x="384" y="158"/>
        <point x="389" y="148"/>
        <point x="415"  y="133"  type="curve"/>
        <point x="429" y="126"/>
        <point x="446" y="119"/>
        <point x="466"  y="110"  type="curve"/>
        <point x="486" y="102"/>
        <point x="508" y="92"/>
        <point x="531"  y="81"  type="curve"/>
        <point x="549" y="72"/>
        <point x="558" y="52"/>
        <point x="554"  y="33"  type="curve"/>
        <point x="549" y="14"/>
        <point x="532" y="0"/>
        <point x="512"  y="0"  type="curve"/>
        <point x="85" y="0" type="line"/>
        <point x="66" y="0"/>
        <point x="48" y="14"/>
        <point x="44"  y="33"  type="curve"/>
        <point x="39" y="52"/>
        <point x="49" y="72"/>
        <point x="66"  y="81"  type="curve"/>
        <point x="89" y="92"/>
        <point x="112" y="102"/>
        <point x="131"  y="110"  type="curve"/>
        <point x="152" y="119"/>
        <point x="168" y="126"/>
        <point x="182"  y="133"  type="curve"/>
        <point x="209" y="148"/>
        <point x="213" y="158"/>
        <point x="213"  y="171"  type="curve"/>
        <point x="213" y="597" type="line"/>
        <point x="213" y="833"/>
        <point x="404" y="1024"/>
        <point x="640"  y="1024"  type="curve"/>
      </contour>
  </outline>
</glyph>
<glyph name="s" format="2">
  <advance width="853"/>
  <unicode hex="0073"/>
  <outline>
      <contour>
        <point x="468" y="399" type="line"/>
        <point x="518" y="382"/>
        <point x="555" y="334"/>
        <point x="555"  y="277"  type="curve"/>
        <point x="555" y="207"/>
        <point x="497" y="149"/>
        <point x="427"  y="149"  type="curve"/>
        <point x="356" y="149"/>
        <point x="292" y="178"/>
        <point x="246"  y="224"  type="curve"/>
        <point x="212" y="258"/>
        <point x="158" y="258"/>
        <point x="125"  y="224"  type="curve"/>
        <point x="92" y="191"/>
        <point x="92" y="137"/>
        <point x="125"  y="104"  type="curve"/>
        <point x="202" y="27"/>
        <point x="309" y="-21"/>
        <point x="427"  y="-21"  type="curve"/>
        <point x="592" y="-21"/>
        <point x="725" y="112"/>
        <point x="725"  y="277"  type="curve"/>
        <point x="725" y="408"/>
        <point x="641" y="519"/>
        <point x="524"  y="560"  type="curve"/>
        <point x="343" y="625" type="line"/>
        <point x="292" y="642"/>
        <point x="256" y="690"/>
        <point x="256"  y="747"  type="curve"/>
        <point x="256" y="817"/>
        <point x="313" y="875"/>
        <point x="384"  y="875"  type="curve"/>
        <point x="455" y="875"/>
        <point x="519" y="846"/>
        <point x="565"  y="800"  type="curve"/>
        <point x="598" y="766"/>
        <point x="652" y="766"/>
        <point x="686"  y="800"  type="curve"/>
        <point x="719" y="833"/>
        <point x="719" y="887"/>
        <point x="686"  y="920"  type="curve"/>
        <point x="609" y="997"/>
        <point x="502" y="1045"/>
        <point x="384"  y="1045"  type="curve"/>
        <point x="219" y="1045"/>
        <point x="85" y="912"/>
        <point x="85"  y="747"  type="curve"/>
        <point x="85" y="616"/>
        <point x="170" y="505"/>
        <point x="287"  y="464"  type="curve"/>
        <point x="468" y="399" type="line"/>
      </contour>
  </outline>
</glyph>
<glyph name="t" format="2">
  <advance width="632"/>
  <unicode hex="0074"/>
  <outline>
      <contour>
        <point x="213" y="1301" type="line"/>
        <point x="260" y="1301"/>
        <point x="299" y="1263"/>
        <point x="299"  y="1216"  type="curve"/>
        <point x="299" y="1024" type="line"/>
        <point x="469" y="1024" type="line"/>
        <point x="516" y="1024"/>
        <point x="555" y="986"/>
        <point x="555"  y="939"  type="curve"/>
        <point x="555" y="892"/>
        <point x="516" y="853"/>
        <point x="469"  y="853"  type="curve"/>
        <point x="299" y="853" type="line"/>
        <point x="299" y="235" type="line"/>
        <point x="299" y="188"/>
        <point x="337" y="149"/>
        <point x="384"  y="149"  type="curve"/>
        <point x="408" y="149"/>
        <point x="429" y="159"/>
        <point x="444"  y="174"  type="curve"/>
        <point x="478" y="208"/>
        <point x="532" y="208"/>
        <point x="565"  y="174"  type="curve"/>
        <point x="598" y="141"/>
        <point x="598" y="87"/>
        <point x="565"  y="54"  type="curve"/>
        <point x="519" y="7"/>
        <point x="455" y="-21"/>
        <point x="384"  y="-21"  type="curve"/>
        <point x="243" y="-21"/>
        <point x="128" y="93"/>
        <point x="128"  y="235"  type="curve"/>
        <point x="128" y="1216" type="line"/>
        <point x="128" y="1263"/>
        <point x="166" y="1301"/>
        <point x="213"  y="1301"  type="curve"/>
      </contour>
  </outline>
</glyph>
<glyph name="u" format="2">
  <advance width="1109"/>
  <unicode hex="0075"/>
  <outline>
      <contour>
        <point x="299" y="405" type="line"/>
        <point x="299" y="264"/>
        <point x="413" y="149"/>
        <point x="555"  y="149"  type="curve"/>
        <point x="696" y="149"/>
        <point x="811" y="264"/>
        <point x="811"  y="405"  type="curve"/>
        <point x="811" y="853" type="line"/>
        <point x="811" y="878"/>
        <point x="804" y="889"/>
        <point x="795"  y="899"  type="curve"/>
        <point x="789" y="906"/>
        <point x="782" y="912"/>
        <point x="772"  y="921"  type="curve"/>
        <point x="762" y="929"/>
        <point x="750" y="939"/>
        <point x="738"  y="951"  type="curve"/>
        <point x="726" y="963"/>
        <point x="722" y="982"/>
        <point x="729"  y="998"  type="curve"/>
        <point x="735" y="1014"/>
        <point x="751" y="1024"/>
        <point x="768"  y="1024"  type="curve"/>
        <point x="1024" y="1024" type="line"/>
        <point x="1041" y="1024"/>
        <point x="1057" y="1014"/>
        <point x="1063"  y="998"  type="curve"/>
        <point x="1070" y="982"/>
        <point x="1066" y="963"/>
        <point x="1054"  y="951"  type="curve"/>
        <point x="1042" y="939"/>
        <point x="1030" y="929"/>
        <point x="1020"  y="921"  type="curve"/>
        <point x="1010" y="912"/>
        <point x="1003" y="906"/>
        <point x="997"  y="899"  type="curve"/>
        <point x="988" y="889"/>
        <point x="981" y="878"/>
        <point x="981"  y="853"  type="curve"/>
        <point x="981" y="405" type="line"/>
        <point x="981" y="170"/>
        <point x="790" y="-21"/>
        <point x="555"  y="-21"  type="curve"/>
        <point x="319" y="-21"/>
        <point x="128" y="170"/>
        <point x="128"  y="405"  type="curve"/>
        <point x="128" y="853" type="line"/>
        <point x="128" y="878"/>
        <point x="121" y="889"/>
        <point x="112"  y="899"  type="curve"/>
        <point x="106" y="906"/>
        <point x="99" y="912"/>
        <point x="89"  y="921"  type="curve"/>
        <point x="79" y="929"/>
        <point x="67" y="939"/>
        <point x="55"  y="951"  type="curve"/>
        <point x="43" y="963"/>
        <point x="39" y="982"/>
        <point x="46"  y="998"  type="curve"/>
        <point x="53" y="1014"/>
        <point x="68" y="1024"/>
        <point x="85"  y="1024"  type="curve"/>
        <point x="341" y="1024" type="line"/>
        <point x="359" y="1024"/>
        <point x="374" y="1014"/>
        <point x="381"  y="998"  type="curve"/>
        <point x="387" y="982"/>
        <point x="384" y="963"/>
        <point x="372"  y="951"  type="curve"/>
        <point x="359" y="939"/>
        <point x="347" y="929"/>
        <point x="338"  y="921"  type="curve"/>
        <point x="327" y="912"/>
        <point x="320" y="906"/>
        <point x="314"  y="899"  type="curve"/>
        <point x="305" y="889"/>
        <point x="299" y="878"/>
        <point x="299"  y="853"  type="curve"/>
        <point x="299" y="405" type="line"/>
      </contour>
  </outline>
</glyph>
<glyph name="w" format="2">
  <advance width="1792"/>
  <unicode hex="0077"/>
  <outline>
      <contour>
        <point x="896" y="1045" type="line"/>
        <point x="1026" y="1045"/>
        <point x="1133" y="949"/>
        <point x="1150"  y="823"  type="curve"/>
        <point x="1238" y="222" type="line"/>
        <point x="1244" y="180"/>
        <point x="1281" y="149"/>
        <point x="1324"  y="149"  type="curve"/>
        <point x="1367" y="150"/>
        <point x="1402" y="182"/>
        <point x="1407"  y="225"  type="curve"/>
        <point x="1484" y="863" type="line"/>
        <point x="1485" y="884"/>
        <point x="1481" y="893"/>
        <point x="1474"  y="901"  type="curve"/>
        <point x="1470" y="907"/>
        <point x="1463" y="913"/>
        <point x="1453"  y="921"  type="curve"/>
        <point x="1444" y="929"/>
        <point x="1432" y="939"/>
        <point x="1421"  y="951"  type="curve"/>
        <point x="1408" y="963"/>
        <point x="1405" y="982"/>
        <point x="1411"  y="998"  type="curve"/>
        <point x="1418" y="1014"/>
        <point x="1433" y="1024"/>
        <point x="1451"  y="1024"  type="curve"/>
        <point x="1707" y="1024" type="line"/>
        <point x="1724" y="1024"/>
        <point x="1739" y="1014"/>
        <point x="1746"  y="998"  type="curve"/>
        <point x="1753" y="982"/>
        <point x="1749" y="963"/>
        <point x="1737"  y="951"  type="curve"/>
        <point x="1725" y="939"/>
        <point x="1712" y="929"/>
        <point x="1702"  y="920"  type="curve"/>
        <point x="1691" y="912"/>
        <point x="1683" y="905"/>
        <point x="1677"  y="898"  type="curve"/>
        <point x="1666" y="888"/>
        <point x="1659" y="876"/>
        <point x="1655"  y="857"  type="curve"/>
        <point x="1577" y="204" type="line"/>
        <point x="1562" y="77"/>
        <point x="1454" y="-20"/>
        <point x="1326"  y="-21"  type="curve"/>
        <point x="1198" y="-23"/>
        <point x="1088" y="71"/>
        <point x="1069"  y="197"  type="curve"/>
        <point x="981" y="800" type="line"/>
        <point x="975" y="842"/>
        <point x="939" y="875"/>
        <point x="896"  y="875"  type="curve"/>
        <point x="853" y="875"/>
        <point x="817" y="842"/>
        <point x="811"  y="800"  type="curve"/>
        <point x="723" y="197" type="line"/>
        <point x="704" y="71"/>
        <point x="594" y="-23"/>
        <point x="466"  y="-21"  type="curve"/>
        <point x="338" y="-20"/>
        <point x="230" y="77"/>
        <point x="215"  y="204"  type="curve"/>
        <point x="137" y="858" type="line"/>
        <point x="133" y="877"/>
        <point x="126" y="888"/>
        <point x="115"  y="898"  type="curve"/>
        <point x="109" y="905"/>
        <point x="101" y="912"/>
        <point x="90"  y="920"  type="curve"/>
        <point x="80" y="929"/>
        <point x="67" y="939"/>
        <point x="55"  y="951"  type="curve"/>
        <point x="43" y="963"/>
        <point x="39" y="982"/>
        <point x="46"  y="998"  type="curve"/>
        <point x="53" y="1014"/>
        <point x="68" y="1024"/>
        <point x="85"  y="1024"  type="curve"/>
        <point x="341" y="1024" type="line"/>
        <point x="359" y="1024"/>
        <point x="374" y="1014"/>
        <point x="381"  y="998"  type="curve"/>
        <point x="387" y="982"/>
        <point x="384" y="963"/>
        <point x="371"  y="951"  type="curve"/>
        <point x="360" y="939"/>
        <point x="348" y="929"/>
        <point x="338"  y="921"  type="curve"/>
        <point x="329" y="913"/>
        <point x="322" y="907"/>
        <point x="318"  y="901"  type="curve"/>
        <point x="311" y="893"/>
        <point x="306" y="884"/>
        <point x="308"  y="862"  type="curve"/>
        <point x="384" y="225" type="line"/>
        <point x="390" y="182"/>
        <point x="425" y="150"/>
        <point x="468"  y="149"  type="curve"/>
        <point x="511" y="149"/>
        <point x="548" y="180"/>
        <point x="554"  y="222"  type="curve"/>
        <point x="642" y="823" type="line"/>
        <point x="659" y="949"/>
        <point x="766" y="1045"/>
        <point x="896"  y="1045"  type="curve"/>
      </contour>
  </outline>
</glyph>
<glyph name="x" format="2">
  <advance width="1280"/>
  <unicode hex="0078"/>
  <outline>
      <contour>
        <point x="427" y="1024" type="line"/>
        <point x="444" y="1024"/>
        <point x="459" y="1014"/>
        <point x="466"  y="998"  type="curve"/>
        <point x="473" y="982"/>
        <point x="469" y="963"/>
        <point x="457"  y="951"  type="curve"/>
        <point x="445" y="940"/>
        <point x="438" y="933"/>
        <point x="433"  y="926"  type="curve"/>
        <point x="431" y="924"/>
        <point x="430" y="922"/>
        <point x="429"  y="921"  type="curve"/>
        <point x="429" y="920"/>
        <point x="430" y="918"/>
        <point x="431"  y="915"  type="curve"/>
        <point x="435" y="908"/>
        <point x="441" y="897"/>
        <point x="454"  y="881"  type="curve"/>
        <point x="640" y="649" type="line"/>
        <point x="826" y="881" type="line"/>
        <point x="839" y="897"/>
        <point x="845" y="908"/>
        <point x="849"  y="915"  type="curve"/>
        <point x="850" y="918"/>
        <point x="851" y="920"/>
        <point x="851"  y="921"  type="curve"/>
        <point x="850" y="922"/>
        <point x="849" y="924"/>
        <point x="847"  y="926"  type="curve"/>
        <point x="842" y="933"/>
        <point x="835" y="940"/>
        <point x="823"  y="951"  type="curve"/>
        <point x="811" y="963"/>
        <point x="807" y="982"/>
        <point x="814"  y="998"  type="curve"/>
        <point x="821" y="1014"/>
        <point x="836" y="1024"/>
        <point x="853"  y="1024"  type="curve"/>
        <point x="1109" y="1024" type="line"/>
        <point x="1127" y="1024"/>
        <point x="1142" y="1014"/>
        <point x="1149"  y="998"  type="curve"/>
        <point x="1155" y="982"/>
        <point x="1152" y="963"/>
        <point x="1139"  y="951"  type="curve"/>
        <point x="1116" y="927"/>
        <point x="1090" y="910"/>
        <point x="1070"  y="894"  type="curve"/>
        <point x="1049" y="878"/>
        <point x="1027" y="859"/>
        <point x="1002"  y="828"  type="curve"/>
        <point x="749" y="512" type="line"/>
        <point x="1002" y="196" type="line"/>
        <point x="1024" y="169"/>
        <point x="1052" y="151"/>
        <point x="1088"  y="135"  type="curve"/>
        <point x="1106" y="127"/>
        <point x="1126" y="119"/>
        <point x="1147"  y="110"  type="curve"/>
        <point x="1168" y="102"/>
        <point x="1191" y="92"/>
        <point x="1214"  y="81"  type="curve"/>
        <point x="1231" y="72"/>
        <point x="1241" y="52"/>
        <point x="1236"  y="33"  type="curve"/>
        <point x="1232" y="14"/>
        <point x="1214" y="0"/>
        <point x="1195"  y="0"  type="curve"/>
        <point x="768" y="0" type="line"/>
        <point x="748" y="0"/>
        <point x="731" y="14"/>
        <point x="726"  y="33"  type="curve"/>
        <point x="722" y="52"/>
        <point x="731" y="72"/>
        <point x="749"  y="81"  type="curve"/>
        <point x="760" y="86"/>
        <point x="771" y="91"/>
        <point x="780"  y="96"  type="curve"/>
        <point x="790" y="101"/>
        <point x="799" y="105"/>
        <point x="807"  y="109"  type="curve"/>
        <point x="823" y="117"/>
        <point x="832" y="123"/>
        <point x="836"  y="127"  type="curve"/>
        <point x="835" y="130"/>
        <point x="832" y="135"/>
        <point x="826"  y="143"  type="curve"/>
        <point x="640" y="375" type="line"/>
        <point x="454" y="143" type="line"/>
        <point x="448" y="135"/>
        <point x="445" y="130"/>
        <point x="444"  y="127"  type="curve"/>
        <point x="448" y="123"/>
        <point x="457" y="117"/>
        <point x="473"  y="109"  type="curve"/>
        <point x="481" y="105"/>
        <point x="490" y="101"/>
        <point x="500"  y="96"  type="curve"/>
        <point x="509" y="91"/>
        <point x="520" y="86"/>
        <point x="531"  y="81"  type="curve"/>
        <point x="549" y="72"/>
        <point x="558" y="52"/>
        <point x="553"  y="33"  type="curve"/>
        <point x="549" y="14"/>
        <point x="532" y="0"/>
        <point x="512"  y="0"  type="curve"/>
        <point x="85" y="0" type="line"/>
        <point x="66" y="0"/>
        <point x="48" y="14"/>
        <point x="44"  y="33"  type="curve"/>
        <point x="39" y="52"/>
        <point x="49" y="72"/>
        <point x="66"  y="81"  type="curve"/>
        <point x="89" y="92"/>
        <point x="112" y="102"/>
        <point x="133"  y="110"  type="curve"/>
        <point x="154" y="119"/>
        <point x="174" y="127"/>
        <point x="192"  y="135"  type="curve"/>
        <point x="228" y="151"/>
        <point x="256" y="169"/>
        <point x="278"  y="196"  type="curve"/>
        <point x="531" y="512" type="line"/>
        <point x="278" y="828" type="line"/>
        <point x="253" y="859"/>
        <point x="231" y="878"/>
        <point x="210"  y="894"  type="curve"/>
        <point x="190" y="910"/>
        <point x="164" y="927"/>
        <point x="140"  y="951"  type="curve"/>
        <point x="128" y="963"/>
        <point x="125" y="982"/>
        <point x="131"  y="998"  type="curve"/>
        <point x="138" y="1014"/>
        <point x="153" y="1024"/>
        <point x="171"  y="1024"  type="curve"/>
        <point x="427" y="1024" type="line"/>
      </contour>
  </outline>
</glyph>
<glyph name="y" format="2">
  <advance width="1109"/>
  <unicode hex="0079"/>
  <outline>
      <contour>
        <point x="341" y="1024" type="line"/>
        <point x="359" y="1024"/>
        <point x="374" y="1014"/>
        <point x="381"  y="998"  type="curve"/>
        <point x="387" y="982"/>
        <point x="384" y="963"/>
        <point x="371"  y="951"  type="curve"/>
        <point x="360" y="940"/>
        <point x="348" y="929"/>
        <point x="340"  y="922"  type="curve"/>
        <point x="331" y="913"/>
        <point x="325" y="908"/>
        <point x="322"  y="903"  type="curve"/>
        <point x="319" y="899"/>
        <point x="317" y="895"/>
        <point x="316"  y="891"  type="curve"/>
        <point x="315" y="886"/>
        <point x="315" y="877"/>
        <point x="319"  y="863"  type="curve"/>
        <point x="472" y="215" type="line"/>
        <point x="481" y="177"/>
        <point x="515" y="149"/>
        <point x="555"  y="149"  type="curve"/>
        <point x="594" y="149"/>
        <point x="629" y="177"/>
        <point x="638"  y="215"  type="curve"/>
        <point x="790" y="863" type="line"/>
        <point x="794" y="877"/>
        <point x="794" y="886"/>
        <point x="793"  y="891"  type="curve"/>
        <point x="792" y="895"/>
        <point x="791" y="899"/>
        <point x="788"  y="903"  type="curve"/>
        <point x="784" y="908"/>
        <point x="779" y="913"/>
        <point x="770"  y="922"  type="curve"/>
        <point x="762" y="929"/>
        <point x="749" y="940"/>
        <point x="738"  y="951"  type="curve"/>
        <point x="726" y="963"/>
        <point x="722" y="982"/>
        <point x="729"  y="998"  type="curve"/>
        <point x="735" y="1014"/>
        <point x="751" y="1024"/>
        <point x="768"  y="1024"  type="curve"/>
        <point x="1024" y="1024" type="line"/>
        <point x="1041" y="1024"/>
        <point x="1057" y="1014"/>
        <point x="1063"  y="998"  type="curve"/>
        <point x="1070" y="982"/>
        <point x="1066" y="963"/>
        <point x="1054"  y="951"  type="curve"/>
        <point x="1042" y="939"/>
        <point x="1029" y="929"/>
        <point x="1019"  y="920"  type="curve"/>
        <point x="1008" y="911"/>
        <point x="999" y="904"/>
        <point x="991"  y="897"  type="curve"/>
        <point x="978" y="884"/>
        <point x="967" y="870"/>
        <point x="962"  y="844"  type="curve"/>
        <point x="722" y="-171" type="line"/>
        <point x="694" y="-281"/>
        <point x="593" y="-363"/>
        <point x="474"  y="-363"  type="curve"/>
        <point x="403" y="-363"/>
        <point x="339" y="-334"/>
        <point x="293"  y="-288"  type="curve"/>
        <point x="260" y="-254"/>
        <point x="260" y="-200"/>
        <point x="293"  y="-167"  type="curve"/>
        <point x="326" y="-134"/>
        <point x="380" y="-134"/>
        <point x="414"  y="-167"  type="curve"/>
        <point x="429" y="-183"/>
        <point x="450" y="-192"/>
        <point x="474"  y="-192"  type="curve"/>
        <point x="514" y="-192"/>
        <point x="547" y="-165"/>
        <point x="557"  y="-128"  type="curve"/>
        <point x="582" y="-20" type="line"/>
        <point x="573" y="-21"/>
        <point x="564" y="-21"/>
        <point x="555"  y="-21"  type="curve"/>
        <point x="436" y="-21"/>
        <point x="333" y="60"/>
        <point x="305"  y="176"  type="curve"/>
        <point x="148" y="844" type="line"/>
        <point x="142" y="870"/>
        <point x="131" y="884"/>
        <point x="118"  y="897"  type="curve"/>
        <point x="110" y="904"/>
        <point x="102" y="911"/>
        <point x="90"  y="920"  type="curve"/>
        <point x="80" y="929"/>
        <point x="68" y="939"/>
        <point x="55"  y="951"  type="curve"/>
        <point x="43" y="963"/>
        <point x="39" y="982"/>
        <point x="46"  y="998"  type="curve"/>
        <point x="53" y="1014"/>
        <point x="68" y="1024"/>
        <point x="85"  y="1024"  type="curve"/>
        <point x="341" y="1024" type="line"/>
      </contour>
  </outline>
</glyph>
<glyph name="z" format="2">
  <advance width="1024"/>
  <unicode hex="007A"/>
  <outline>
      <contour>
        <point x="85" y="256" type="line"/>
        <point x="85" y="363"/>
        <point x="151" y="455"/>
        <point x="244"  y="493"  type="curve"/>
        <point x="714" y="689" type="line"/>
        <point x="715" y="689" type="line"/>
        <point x="746" y="702"/>
        <point x="768" y="732"/>
        <point x="768"  y="768"  type="curve"/>
        <point x="768" y="815"/>
        <point x="730" y="853"/>
        <point x="683"  y="853"  type="curve"/>
        <point x="171" y="853" type="line"/>
        <point x="124" y="853"/>
        <point x="85" y="892"/>
        <point x="85"  y="939"  type="curve"/>
        <point x="85" y="986"/>
        <point x="124" y="1024"/>
        <point x="171"  y="1024"  type="curve"/>
        <point x="683" y="1024" type="line"/>
        <point x="824" y="1024"/>
        <point x="939" y="909"/>
        <point x="939"  y="768"  type="curve"/>
        <point x="939" y="661"/>
        <point x="873" y="569"/>
        <point x="779"  y="531"  type="curve"/>
        <point x="780" y="531" type="line"/>
        <point x="310" y="335" type="line"/>
        <point x="309" y="335" type="line"/>
        <point x="278" y="322"/>
        <point x="256" y="292"/>
        <point x="256"  y="256"  type="curve"/>
        <point x="256" y="209"/>
        <point x="294" y="171"/>
        <point x="341"  y="171"  type="curve"/>
        <point x="853" y="171" type="line"/>
        <point x="900" y="171"/>
        <point x="939" y="132"/>
        <point x="939"  y="85"  type="curve"/>
        <point x="939" y="38"/>
        <point x="900" y="0"/>
        <point x="853"  y="0"  type="curve"/>
        <point x="341" y="0" type="line"/>
        <point x="200" y="0"/>
        <point x="85" y="115"/>
        <point x="85"  y="256"  type="curve"/>
      </contour>
  </outline>
</glyph>
<glyph name="uni2013" format="2">
  <advance width="1024"/>
  <unicode hex="2013"/>
  <outline>
      <contour>
        <point x="1024" y="597" type="line"/>
        <point x="1071" y="597"/>
        <point x="1109" y="559"/>
        <point x="1109"  y="512"  type="curve"/>
        <point x="1109" y="465"/>
        <point x="1071" y="427"/>
        <point x="1024"  y="427"  type="curve"/>
        <point x="0" y="427" type="line"/>
        <point x="-47" y="427"/>
        <point x="-85" y="465"/>
        <point x="-85"  y="512"  type="curve"/>
        <point x="-85" y="559"/>
        <point x="-47" y="597"/>
        <point x="0"  y="597"  type="curve"/>
        <point x="1024" y="597" type="line"/>
      </contour>
  </outline>
</glyph>
<glyph name="uni2014" format="2">
  <advance width="2048"/>
  <unicode hex="2014"/>
  <outline>
      <contour>
        <point x="2048" y="597" type="line"/>
        <point x="2095" y="597"/>
        <point x="2133" y="559"/>
        <point x="2133"  y="512"  type="curve"/>
        <point x="2133" y="465"/>
        <point x="2095" y="427"/>
        <point x="2048"  y="427"  type="curve"/>
        <point x="0" y="427" type="line"/>
        <point x="-47" y="427"/>
        <point x="-85" y="465"/>
        <point x="-85"  y="512"  type="curve"/>
        <point x="-85" y="559"/>
        <point x="-47" y="597"/>
        <point x="0"  y="597"  type="curve"/>
        <point x="2048" y="597" type="line"/>
      </contour>
  </outline>
</glyph>
